#!OML:ASF I:\Actors\actors\Patient Classification 2\Patient 1\Session 1\actor1.ASF
:FULLY-SPECIFIED
:DEGREES
701
root -1.75089 18.75 5.02793 7.48544 2.3068 -1.17696
lowerback 24.5741 -1.05563 0.546916
upperback 9.38624 -1.10885 1.80171
thorax -3.29176 -0.561938 1.92792
lowerneck -21.0027 -0.400144 -1.7485
upperneck 19.7527 -0.490377 2.05055
head 9.7394 -0.116678 0.936519
rclavicle 1.00386e-014 -8.94531e-015
rhumerus -22.7481 70.2294 -108.025
rradius 101.847
rwrist -35.8962
rhand 28.6302 -34.2832
rfingers 7.12502
rthumb 52.4713 -54.1047
lclavicle 1.00386e-014 -8.94531e-015
lhumerus -43.7439 -65.8788 141.523
lradius 118.054
lwrist 29.1124
lhand 1.06968 -23.318
lfingers 7.12502
lthumb 26.6145 4.83148
rfemur -8.5537 0.429586 19.1031
rtibia 13.3212
rfoot -20.1233 -11.6901
rtoes -10.6067
lfemur -18.1708 -3.30725 -8.765
ltibia 24.938
lfoot -14.4607 8.07989
ltoes -58.5542
702
root -1.69831 18.7557 5.02363 7.58049 2.32902 -1.1135
lowerback 24.5977 -1.07608 0.431855
upperback 9.38987 -1.16457 1.72043
thorax -3.29733 -0.589689 1.92098
lowerneck -21.1172 -0.408605 -1.71389
upperneck 19.7699 -0.52296 2.09701
head 9.76699 -0.122958 0.942799
rclavicle 1.61016e-014 -2.14687e-014
rhumerus -23.1592 71.4274 -108.686
rradius 102.256
rwrist -36.5158
rhand 29.1265 -34.6931
rfingers 7.12502
rthumb 52.9199 -54.236
lclavicle 1.61016e-014 -2.14687e-014
lhumerus -44.3053 -65.4034 142.07
lradius 118.117
lwrist 28.9991
lhand 1.33629 -22.742
lfingers 7.12502
lthumb 26.8697 5.36852
rfemur -8.38984 0.546745 18.8334
rtibia 12.7843
rfoot -20.0428 -11.9265
rtoes -10.6084
lfemur -18.3095 -3.31934 -9.00746
ltibia 24.9768
lfoot -14.5227 8.00971
ltoes -58.3671
703
root -1.64352 18.7603 5.0199 7.64975 2.37225 -1.13309
lowerback 24.5447 -1.08311 0.401176
upperback 9.46748 -1.18481 1.67081
thorax -3.18639 -0.599995 1.88772
lowerneck -21.3625 -0.447731 -1.72737
upperneck 19.8699 -0.602044 2.22659
head 9.8492 -0.14358 0.980385
rclavicle 2.79292e-014 -2.17669e-014
rhumerus -23.3021 72.4119 -109.006
rradius 102.626
rwrist -36.8678
rhand 30.2719 -34.3129
rfingers 7.12502
rthumb 53.9513 -53.1838
lclavicle 2.79292e-014 -2.17669e-014
lhumerus -44.5802 -65.2402 142.413
lradius 118.222
lwrist 29.0474
lhand 1.92913 -21.7381
lfingers 7.12502
lthumb 27.4368 6.28379
rfemur -8.19408 0.551136 18.658
rtibia 12.2323
rfoot -19.8693 -12.1268
rtoes -10.992
lfemur -18.4208 -3.28664 -9.16485
ltibia 25.0208
lfoot -14.636 7.89388
ltoes -58.1652
704
root -1.58532 18.7638 5.01417 7.72923 2.44599 -1.19988
lowerback 24.5671 -1.14075 0.518229
upperback 9.49453 -1.23735 1.5697
thorax -3.17119 -0.621405 1.72549
lowerneck -21.5228 -0.450876 -1.6683
upperneck 19.9197 -0.651652 2.33856
head 9.89737 -0.147404 1.00358
rclavicle -1.93815e-014 1.0635e-014
rhumerus -23.8022 73.2108 -109.765
rradius 102.946
rwrist -37.0959
rhand 30.8342 -33.9058
rfingers 7.12502
rthumb 54.4553 -52.4312
lclavicle -1.93815e-014 1.0635e-014
lhumerus -44.9534 -65.0129 142.76
lradius 118.283
lwrist 29.0904
lhand 2.63972 -20.7909
lfingers 7.12502
lthumb 28.1162 7.1214
rfemur -7.9894 0.500901 18.5291
rtibia 11.6334
rfoot -19.6362 -12.3019
rtoes -11.1474
lfemur -18.5835 -3.2379 -9.28621
ltibia 25.0899
lfoot -14.7052 7.79245
ltoes -58.1346
705
root -1.52349 18.7662 5.009 7.84526 2.50268 -1.25758
lowerback 24.5701 -1.2455 0.767708
upperback 9.49628 -1.3278 1.33859
thorax -3.18023 -0.655995 1.35723
lowerneck -21.549 -0.419593 -1.42684
upperneck 19.8306 -0.70108 2.40161
head 9.87117 -0.143842 0.978194
rclavicle 9.93923e-015 -9.93923e-015
rhumerus -24.7083 73.8522 -111.147
rradius 103.2
rwrist -37.4451
rhand 30.6543 -34.0675
rfingers 7.12502
rthumb 54.2943 -52.7047
lclavicle 9.93923e-015 -9.93923e-015
lhumerus -45.6381 -64.8251 143.035
lradius 118.421
lwrist 29.0568
lhand 3.02417 -20.5449
lfingers 7.12502
lthumb 28.4837 7.30644
rfemur -7.78877 0.587634 18.3642
rtibia 10.9806
rfoot -19.485 -12.5254
rtoes -10.8761
lfemur -18.8017 -3.19094 -9.42774
ltibia 25.1894
lfoot -14.753 7.68876
ltoes -58.109
